# xmcd
#
# Track frame offsets: 
#        150
#        27017
#        47098
#        72999
#        92023
#        109719
#        127760
#        151324
#        168790
#        187181
#
# Disc length: 2813 seconds
#
# Revision: 0
# Processed by: cddbd v1.5.2PL0 Copyright (c) Steve Scherf et al.
# Submitted via: ExactAudioCopy v1.0b3
#
DISCID=770afb0a
DTITLE=小松 - 寻找丽江的感觉
DYEAR=2010
DGENRE=Pop
TTITLE0=幸福着 
TTITLE1=束河的阳光
TTITLE2=以为
TTITLE3=爱的箴言
TTITLE4=野百合也有春天
TTITLE5=再回首
TTITLE6=我如此爱你
TTITLE7=乌兰巴托的夜
TTITLE8=雨一直下
TTITLE9=最后一夜
EXTD=
EXTT0=
EXTT1=
EXTT2=
EXTT3=
EXTT4=
EXTT5=
EXTT6=
EXTT7=
EXTT8=
EXTT9=
PLAYORDER=
